<svg width="192" height="48" viewBox="0 0 192 48" fill="none" xmlns="http://www.w3.org/2000/svg">
<path d="M3.36 1.824H18.096C21.936 1.824 24.976 2.752 27.216 4.608C29.488 6.432 30.624 9.168 30.624 12.816C30.624 16.4 29.504 19.12 27.264 20.976C25.024 22.8 22.096 23.712 18.48 23.712H10.8V36H3.36V1.824ZM10.8 7.968V17.808H17.472C21.376 17.808 23.328 16.176 23.328 12.912C23.328 9.616 21.392 7.968 17.52 7.968H10.8Z" fill="#41B883"/>
<path d="M41.6156 1.824V36H34.7996V1.824H41.6156ZM70.0226 36H63.1106C62.8866 35.36 62.7266 34.56 62.6306 33.6C60.5506 35.68 57.8786 36.72 54.6146 36.72C51.8626 36.72 49.7026 36.064 48.1346 34.752C46.5666 33.408 45.7826 31.568 45.7826 29.232C45.7826 28.176 45.9106 27.248 46.1666 26.448C46.4546 25.648 46.9026 24.976 47.5106 24.432C48.1506 23.888 48.7426 23.44 49.2866 23.088C49.8626 22.736 50.6466 22.448 51.6386 22.224C52.6306 22 53.4306 21.84 54.0386 21.744C54.6466 21.616 55.4946 21.488 56.5826 21.36C58.9826 21.04 60.5826 20.704 61.3826 20.352C62.2146 20 62.6306 19.344 62.6306 18.384C62.6306 16.176 61.1426 15.072 58.1666 15.072C56.5986 15.072 55.4466 15.36 54.7106 15.936C53.9746 16.48 53.4946 17.456 53.2706 18.864H46.8866C47.2706 13.296 51.0946 10.512 58.3586 10.512C65.5586 10.512 69.1586 13.2 69.1586 18.576V29.28C69.1586 32.416 69.4466 34.656 70.0226 36ZM62.5826 23.952C61.7826 24.432 60.1826 24.864 57.7826 25.248C55.7666 25.568 54.4546 25.968 53.8466 26.448C53.1426 27.056 52.7906 27.888 52.7906 28.944C52.7906 29.968 53.1106 30.784 53.7506 31.392C54.4226 31.968 55.3506 32.256 56.5346 32.256C58.3586 32.256 59.8146 31.776 60.9026 30.816C62.0226 29.824 62.5826 28.464 62.5826 26.736V23.952ZM75.2651 36V1.824H82.8971L96.9611 24.72V1.824H104.161V36H96.6731L82.5131 13.056V36H75.2651Z" fill="#35495E"/>
<path d="M97.312 36V1.824H104.944L119.008 24.72V1.824H126.208V36H118.72L104.56 13.056V36H97.312ZM155.45 28.32C154.682 30.976 153.258 33.04 151.178 34.512C149.13 35.984 146.682 36.72 143.834 36.72C140.026 36.72 136.954 35.536 134.618 33.168C132.314 30.8 131.162 27.664 131.162 23.76C131.162 19.92 132.33 16.752 134.666 14.256C137.002 11.76 139.978 10.512 143.594 10.512C147.338 10.512 150.314 11.792 152.522 14.352C154.73 16.88 155.834 20.32 155.834 24.672V25.344H138.074C138.106 27.488 138.618 29.12 139.61 30.24C140.634 31.36 142.058 31.92 143.882 31.92C146.282 31.92 147.962 30.72 148.922 28.32H155.45ZM148.922 21.024C148.762 19.392 148.234 18.064 147.338 17.04C146.442 15.984 145.194 15.456 143.594 15.456C142.09 15.456 140.842 15.952 139.85 16.944C138.858 17.936 138.266 19.296 138.074 21.024H148.922Z" fill="#35495E"/>
<path d="M160.741 1.824H177.733C181.125 1.824 183.893 2.624 186.037 4.224C188.181 5.824 189.253 8.256 189.253 11.52C189.253 13.504 188.773 15.248 187.813 16.752C186.853 18.224 185.525 19.28 183.829 19.92C186.773 20.528 188.453 23.184 188.869 27.888C188.869 28.048 188.901 28.544 188.965 29.376C189.029 30.208 189.093 30.88 189.157 31.392C189.221 31.872 189.301 32.464 189.397 33.168C189.493 33.872 189.637 34.464 189.829 34.944C190.021 35.424 190.245 35.776 190.501 36H182.725C182.469 35.488 182.277 34.848 182.149 34.08C182.021 33.28 181.909 32.272 181.813 31.056C181.717 29.808 181.669 29.12 181.669 28.992C181.413 26.592 180.805 24.928 179.845 24C178.917 23.072 177.253 22.608 174.853 22.608H168.181V36H160.741V1.824ZM168.181 7.728V17.184H175.285C177.365 17.184 178.981 16.864 180.133 16.224C181.317 15.552 181.909 14.256 181.909 12.336C181.909 10.544 181.333 9.328 180.181 8.688C179.061 8.048 177.541 7.728 175.621 7.728H168.181Z" fill="#41B883"/>
</svg>
